<svg xmlns="http://www.w3.org/2000/svg" version="1.1" xmlns:xlink="http://www.w3.org/1999/xlink" xmlns:svgjs="http://svgjs.dev/svgjs" viewBox="0 0 800 800"><defs><filter id="uuunion-blur" x="-100%" y="-100%" width="400%" height="400%" color-interpolation-filters="sRGB">
        <feGaussianBlur in="SourceGraphic" stdDeviation="9 6.5" result="blur"></feGaussianBlur>
        <feDropShadow stdDeviation="49.23076923076923" in="blur" dx="40" dy="40" flood-color="hsl(0, 0%, 80%)" flood-opacity="0.5" x="0%" y="0%" width="100%" height="100%"></feDropShadow>
      </filter><filter id="uuunion-blur2" x="-100%" y="-100%" width="400%" height="400%" color-interpolation-filters="sRGB">
        <feGaussianBlur in="SourceGraphic" stdDeviation="9 6.5" result="blur"></feGaussianBlur>
        <feDropShadow stdDeviation="49.23076923076923" in="blur" dx="-40" dy="-40" flood-color="hsl(0, 0%, 80%)" flood-opacity="0.5" x="0%" y="0%" width="100%" height="100%"></feDropShadow>
      </filter><linearGradient gradientTransform="rotate(83, 0.5, 0.5)" x1="50%" y1="0%" x2="50%" y2="100%" id="uuunion-grad"><stop stop-color="hsl(0, 0%, 100%)" offset="10%"></stop><stop stop-color="hsl(0, 0%, 80%)" offset="90%"></stop></linearGradient><linearGradient gradientTransform="rotate(68, 0.5, 0.5)" x1="50%" y1="0%" x2="50%" y2="100%" id="uuunion-grad2"><stop stop-color="hsl(0, 0%, 100%)" offset="25%"></stop><stop stop-color="hsl(0, 0%, 80%)" offset="100%"></stop></linearGradient><linearGradient gradientTransform="rotate(319, 0.5, 0.5)" x1="50%" y1="0%" x2="50%" y2="100%" id="uuunion-grad3"><stop stop-color="hsl(0, 0%, 100%)" offset="0%"></stop><stop stop-color="hsl(0, 0%, 80%)" offset="75%"></stop></linearGradient></defs><path d="M-78.93 -77.74Q-64.31 -75.74 -49.69 -73.99 -35.07 -72.6 -20.46 -71.66 -5.84 -71.22 8.77 -71.31 23.39 -71.92 38 -73.02 52.62 -74.54 67.24 -76.38 81.85 -78.44 96.47 -80.6 111.09 -82.72 125.71 -84.67 140.32 -86.35 154.94 -87.64 169.56 -88.47 184.18 -88.79 198.79 -88.58 213.41 -87.86 228.03 -86.66 242.64 -85.07 257.26 -83.16 271.88 -81.07 286.5 -78.91 301.11 -76.82 315.73 -74.91 330.35 -73.32 344.97 -72.12 359.58 -71.4 374.2 -71.2 388.82 -71.52 403.44 -72.36 418.05 -73.65 432.67 -75.33 447.29 -77.29 461.9 -79.4 476.52 -81.56 491.14 -83.62 505.76 -85.46 520.37 -86.98 534.99 -88.07 549.61 -88.68 564.23 -88.76 578.84 -88.32 593.46 -87.38 608.08 -85.99 622.69 -84.24 637.31 -82.24 651.93 -80.1 666.55 -77.96 681.16 -75.93 695.78 -74.15 710.4 -72.73 725.02 -71.74 739.63 -71.25 754.25 -71.28 768.87 -71.84 783.48 -72.89 798.1 -74.36 812.72 -76.18 827.34 -78.22 841.95 -80.37 856.57 -82.5 858.7 -67.57 862.16 -52.63 866.72 -37.7 872.11 -22.76 877.99 -7.82 883.99 7.1 889.75 22.04 894.9 36.97 899.12 51.91 902.15 66.85 903.81 81.78 903.98 96.72 902.67 111.65 899.94 126.59 895.98 141.52 891.02 156.46 885.37 171.4 879.39 186.33 873.45 201.27 867.91 216.2 863.13 231.14 859.4 246.08 856.94 261.01 855.92 275.95 856.4 290.88 858.34 305.82 861.63 320.75 866.06 335.69 871.36 350.63 877.19 365.56 883.2 380.5 889.01 395.43 894.26 410.37 898.62 425.31 901.83 440.24 903.67 455.18 904.05 470.11 902.93 485.05 900.38 499.99 896.56 514.92 891.72 529.86 886.15 544.79 880.19 559.73 874.22 574.66 868.61 589.6 863.71 604.54 859.82 619.47 857.19 634.41 855.97 649.34 856.25 664.28 858 679.22 861.12 694.15 865.42 709.09 870.62 724.02 876.4 738.96 882.41 753.89 888.27 768.83 893.61 783.77 898.11 798.7 901.48 813.64 903.51 828.57 904.08 843.51 903.16 858.45 900.79 873.38 885.45 878.99 870.12 884.67 854.78 890.06 839.44 894.84 824.1 898.74 808.76 901.5 793.42 902.97 778.08 903.06 762.74 901.76 747.4 899.15 732.06 895.39 716.72 890.7 701.38 885.37 686.04 879.72 670.7 874.08 655.36 868.8 640.02 864.19 624.68 860.53 609.34 858.04 594 856.88 578.66 857.1 563.32 858.7 547.98 861.59 532.64 865.58 517.3 870.44 501.96 875.87 486.62 881.55 471.28 887.14 455.94 892.3 440.6 896.72 425.26 900.13 409.92 902.33 394.58 903.19 379.24 902.65 363.9 900.75 348.56 897.6 333.22 893.39 317.88 888.38 302.54 882.86 287.2 877.17 271.86 871.65 256.52 866.63 241.18 862.41 225.84 859.26 210.5 857.35 195.16 856.8 179.82 857.65 164.48 859.85 149.14 863.25 133.8 867.66 118.46 872.82 103.12 878.41 87.78 884.09 72.44 889.52 57.1 894.39 41.76 898.38 26.42 901.27 11.08 902.88 -4.25 903.12 -19.59 901.96 -34.92 899.48 -50.26 895.83 -65.6 891.22 -80.94 885.94 -81.05 870.89 -81.09 855.83 -81.07 840.77 -80.98 825.71 -80.82 810.66 -80.62 795.6 -80.37 780.54 -80.11 765.48 -79.83 750.42 -79.57 735.37 -79.33 720.31 -79.13 705.25 -78.99 690.19 -78.91 675.14 -78.9 660.08 -78.95 645.02 -79.07 629.96 -79.25 614.91 -79.48 599.85 -79.73 584.79 -80 569.73 -80.28 554.67 -80.53 539.62 -80.75 524.56 -80.93 509.5 -81.04 494.44 -81.09 479.39 -81.08 464.33 -80.99 449.27 -80.85 434.21 -80.65 419.16 -80.41 404.1 -80.14 389.04 -79.87 373.98 -79.6 358.92 -79.36 343.87 -79.16 328.81 -79.01 313.75 -78.92 298.69 -78.9 283.64 -78.94 268.58 -79.05 253.52 -79.23 238.46 -79.44 223.41 -79.7 208.35 -79.97 193.29 -80.24 178.23 -80.5 163.17 -80.72 148.12 -80.91 133.06 -81.03 118 -81.09 102.94 -81.08 87.89 -81.01 72.83 -80.87 57.77 -80.68 42.71 -80.44 27.66 -80.18 12.6 -79.9 -2.45 -79.64 -17.51 -79.39 -32.57 -79.18 -47.62 -79.02 -62.68 -78.93 -77.74" fill="url(#uuunion-grad)"></path><path d="M-78.93 -77.74Q-79.02 -62.68 -79.18 -47.62 -79.39 -32.57 -79.64 -17.51 -79.9 -2.45 -80.18 12.6 -80.44 27.66 -80.68 42.71 -80.87 57.77 -81.01 72.83 -81.08 87.89 -81.09 102.94 -81.03 118 -80.91 133.06 -80.72 148.12 -80.5 163.17 -80.24 178.23 -79.97 193.29 -79.7 208.35 -79.44 223.41 -79.23 238.46 -79.05 253.52 -78.94 268.58 -78.9 283.64 -78.92 298.69 -79.01 313.75 -79.16 328.81 -79.36 343.87 -79.6 358.92 -79.87 373.98 -80.14 389.04 -80.41 404.1 -70.31 406.57 -60.21 408.86 -50.11 410.91 -40.01 412.68 -29.92 414.1 -19.82 415.14 -0.89 415.94 2.38 415.99 14.83 409.21 27.22 401.79 39.54 393.8 51.78 385.3 63.96 376.41 76.08 367.23 88.13 357.89 100.14 348.52 112.1 339.24 124.03 330.2 135.93 321.48 147.82 313.21 159.7 305.45 171.59 298.25 183.51 291.66 195.45 285.68 207.45 280.29 219.5 275.45 231.62 271.08 243.83 267.12 256.12 263.45 268.51 259.96 281.01 256.54 293.62 253.08 306.35 249.44 319.2 245.54 332.18 241.27 345.27 236.55 358.49 231.34 371.82 225.59 385.25 219.29 398.79 212.45 412.42 205.1 426.13 197.3 439.9 189.11 453.73 180.63 467.59 171.95 481.46 163.16 495.34 154.39 509.2 145.74 523.03 137.29 536.79 129.15 550.49 121.38 564.08 114.05 577.57 107.18 590.92 100.81 604.13 94.92 617.18 89.49 630.05 84.49 642.74 79.85 655.23 75.49 667.52 71.35 679.6 67.32 691.47 63.32 703.13 59.24 714.59 55 725.84 50.51 736.9 45.72 747.78 40.56 758.49 35 769.05 29 779.47 22.58 789.78 15.75 800 8.53 793.67 -9.19 787.88 -26.91 783.11 -44.63 779.77 -62.36 778.13 -80.08 778.35 -97.81 780.39 -115.53 784.09 -133.25 769.46 -132.46 754.84 -132.11 740.22 -132.23 725.59 -132.81 710.97 -133.82 696.35 -135.2 681.72 -136.86 667.1 -138.7 652.48 -140.63 637.85 -142.51 623.23 -144.25 608.61 -145.73 593.98 -146.88 579.36 -147.61 564.74 -147.89 550.11 -147.7 535.49 -147.06 520.87 -145.99 506.24 -144.57 491.62 -142.88 477 -141.01 462.37 -139.09 447.75 -137.21 433.13 -135.51 418.5 -134.07 403.88 -132.98 389.26 -132.31 374.63 -132.1 360.01 -132.35 345.39 -133.06 330.76 -134.18 316.14 -135.65 301.52 -137.37 286.89 -139.25 272.27 -141.18 257.65 -143.03 243.02 -144.71 228.4 -146.1 213.78 -147.13 199.15 -147.74 184.53 -147.89 169.91 -147.56 155.28 -146.79 140.66 -145.62 126.04 -144.11 111.41 -142.35 96.79 -140.46 82.17 -138.54 67.54 -136.7 52.92 -135.06 38.3 -133.72 23.67 -132.74 9.05 -132.2 -5.56 -132.12 -20.19 -132.51 -34.81 -133.34 -49.43 -134.57 -64.06 -136.12 -78.68 -137.9 -93.3 -139.81 -107.93 -141.72 -122.55 -143.54 -131.97 -131.57 -114.99 -112.84 -105.93 -104.14 -96.91 -95.37 -87.91 -86.56 -78.93 -77.74" fill="url(#uuunion-grad2)" filter="url(#uuunion-blur)"></path><path d="M808.23 413.65Q818.32 412.1 828.42 410.24 838.52 408.09 848.62 405.73 858.72 403.22 868.82 400.62 878.91 398 889.01 395.43 894.26 410.37 898.62 425.31 901.83 440.24 903.67 455.18 904.05 470.11 902.93 485.05 900.38 499.99 896.56 514.92 891.72 529.86 886.15 544.79 880.19 559.73 874.22 574.66 868.61 589.6 863.71 604.54 859.82 619.47 857.19 634.41 855.97 649.34 856.25 664.28 858 679.22 861.12 694.15 865.42 709.09 870.62 724.02 876.4 738.96 882.41 753.89 888.27 768.83 893.61 783.77 898.11 798.7 901.48 813.64 903.51 828.57 904.08 843.51 903.16 858.45 900.79 873.38 886.72 878.53 872.64 883.74 858.56 888.77 844.48 893.35 830.41 897.26 816.33 900.29 802.25 902.29 788.17 903.16 774.1 902.86 760.02 901.39 745.94 898.84 731.86 895.34 717.79 891.06 703.71 886.21 689.63 881.05 675.55 875.84 661.48 870.84 647.4 866.3 633.32 862.46 619.24 859.5 605.17 857.59 591.09 856.81 577.01 857.21 562.93 858.76 548.86 861.39 534.78 864.96 520.7 869.3 506.63 874.17 492.55 879.35 478.47 884.55 464.39 889.53 450.32 894.02 436.24 897.8 422.16 900.68 408.08 902.5 394.01 903.19 379.93 902.7 365.85 901.06 351.77 898.35 337.7 894.71 323.62 890.33 309.54 885.42 295.46 880.23 281.39 875.03 267.31 870.09 253.23 865.65 239.15 861.93 225.08 859.13 211 857.39 196.92 856.8 182.84 857.38 168.77 859.1 154.69 861.89 140.61 865.6 126.53 870.03 112.46 874.97 98.38 880.17 84.3 885.36 70.22 890.27 56.15 894.66 42.07 898.31 27.99 901.03 6.91 897.87 -0.04 882.89 -0.02 872.74 -0.03 862.59 -0.07 852.44 -0.13 842.29 -0.01 827.07 0.69 822 13.31 815.19 25.87 807.5 38.37 798.99 50.79 789.75 63.14 779.93 75.42 769.67 87.62 759.15 99.75 748.54 111.82 738.03 123.83 727.8 135.79 718.01 147.7 708.8 159.58 700.29 171.43 692.57 183.27 685.7 195.1 679.69 206.95 674.52 218.82 670.15 230.72 666.48 242.68 663.4 254.69 660.78 266.78 658.45 278.96 656.26 291.24 654.03 303.62 651.59 316.11 648.79 328.73 645.48 341.47 641.56 354.34 636.92 367.34 631.51 380.48 625.29 393.74 618.29 407.13 610.52 420.63 602.08 434.25 593.04 447.97 583.54 461.78 573.72 475.67 563.73 489.61 553.72 503.6 543.86 517.62 534.29 531.64 525.15 545.66 516.55 559.64 508.59 573.57 501.33 587.43 494.81 601.2 489.02 614.86 483.95 628.39 479.54 641.77 475.7 654.98 472.32 668.02 469.29 680.87 466.45 693.52 463.68 705.95 460.82 718.17 457.73 730.17 454.28 741.94 450.36 753.5 445.88 764.84 440.77 775.97 434.99 786.9 428.53 802.94 417.52 808.23 413.65" fill="url(#uuunion-grad3)" filter="url(#uuunion-blur2)"></path></svg>