<svg xmlns="http://www.w3.org/2000/svg" version="1.1" xmlns:xlink="http://www.w3.org/1999/xlink" xmlns:svgjs="http://svgjs.dev/svgjs" width="1440" height="560" preserveAspectRatio="none" viewBox="0 0 1440 560"><g mask="url(&quot;#SvgjsMask3868&quot;)" fill="none"><rect width="1440" height="560" x="0" y="0" fill="url(&quot;#SvgjsLinearGradient3869&quot;)"></rect><path d="M0 0L379.45 0L0 191.96z" fill="rgba(255, 255, 255, .1)"></path><path d="M0 191.96L379.45 0L967.1800000000001 0L0 223.18z" fill="rgba(255, 255, 255, .075)"></path><path d="M0 223.18L967.1800000000001 0L1113.06 0L0 353.63z" fill="rgba(255, 255, 255, .05)"></path><path d="M0 353.63L1113.06 0L1222.58 0L0 490.39z" fill="rgba(255, 255, 255, .025)"></path><path d="M1440 560L1216.65 560L1440 518.81z" fill="rgba(0, 0, 0, .1)"></path><path d="M1440 518.81L1216.65 560L645.8100000000001 560L1440 354.44999999999993z" fill="rgba(0, 0, 0, .075)"></path><path d="M1440 354.45L645.81 560L291.11999999999995 560L1440 249.88z" fill="rgba(0, 0, 0, .05)"></path><path d="M1440 249.88L291.1199999999999 560L171.7899999999999 560L1440 230.69z" fill="rgba(0, 0, 0, .025)"></path></g><defs><mask id="SvgjsMask3868"><rect width="1440" height="560" fill="#ffffff"></rect></mask><linearGradient x1="15.28%" y1="139.29%" x2="84.72%" y2="-39.29%" gradientUnits="userSpaceOnUse" id="SvgjsLinearGradient3869"><stop stop-color="rgba(182, 182, 182, 1)" offset="0.41"></stop><stop stop-color="rgba(238, 238, 238, 1)" offset="0.76"></stop></linearGradient></defs></svg>